<?xml version="1.0" encoding="UTF-8" standalone="no"?>
<!-- Created with Inkscape (http://www.inkscape.org/) -->
<svg
   xmlns:svg="http://www.w3.org/2000/svg"
   xmlns="http://www.w3.org/2000/svg"
   version="1.0"
   width="116.85"
   height="60.779999"
   id="svg2443"
   xml:space="preserve"><defs
     id="defs2446"><clipPath
       id="clipPath2458"><path
         d="M 0,0 L 595.276,0 L 595.276,841.89 L 0,841.89 L 0,0 z"
         id="path2460" /></clipPath><clipPath
       id="clipPath2466"><path
         d="M 431.68,746.748 L 559.843,746.748 L 559.843,812.89 L 431.68,812.89 L 431.68,746.748 z"
         id="path2468" /></clipPath><clipPath
       id="clipPath2476"><path
         d="M 434.91,748.318 L 550.845,748.318 L 550.845,808.174 L 434.91,808.174 L 434.91,748.318 z"
         id="path2478" /></clipPath><clipPath
       id="clipPath2496"><path
         d="M 0,-9.921 L 609.449,-9.921 L 609.449,485.843 L 0,485.843 L 0,-9.921 z"
         id="path2498" /></clipPath><clipPath
       id="clipPath2504"><path
         d="M -23.798,-9.696 C -23.798,-9.696 -22.369,-9.019 -21.993,-8.868 C -21.617,-8.718 -20.79,-8.267 -20.79,-8.267 C -20.79,-8.267 -19.662,-6.913 -18.76,-6.537 C -17.858,-6.161 -15.451,-5.259 -15.301,-4.883 C -15.151,-4.507 -13.346,-3.53 -12.669,-3.154 C -11.992,-2.778 -10.188,-1.875 -10.188,-1.875 C -10.188,-1.875 -9.285,-0.747 -8.383,-0.296 C -7.481,0.155 -5.676,1.358 -5.676,1.358 C -5.676,1.358 -4.172,2.712 -3.27,3.163 C -2.367,3.614 -1.465,4.065 -1.465,4.065 C -1.465,4.065 0.64,5.795 1.467,6.321 C 2.295,6.847 3.949,7.449 3.949,7.449 C 3.949,7.449 5.378,9.028 6.13,9.404 C 6.882,9.78 8.009,10.382 8.009,10.382 C 8.009,10.382 9.062,11.134 9.363,11.284 C 9.664,11.434 10.491,12.111 10.867,12.487 C 11.243,12.863 12.22,13.314 12.22,13.314 C 12.22,13.314 13.198,13.991 13.649,14.217 C 14.1,14.442 14.852,14.969 14.852,14.969 C 14.852,14.969 15.529,15.871 16.356,16.397 C 17.183,16.924 17.935,17.375 17.935,17.375 C 17.935,17.375 19.514,18.352 19.815,18.503 C 20.116,18.653 20.492,19.255 21.169,19.631 C 21.845,20.007 22.898,20.458 22.898,20.458 C 22.898,20.458 23.725,21.285 24.402,21.736 C 25.079,22.187 25.53,22.488 25.53,22.488 C 25.53,22.488 26.282,23.315 26.808,23.616 C 27.335,23.917 27.786,24.142 27.786,24.142 C 27.786,24.142 28.763,24.969 29.29,25.27 C 29.816,25.571 30.493,25.947 30.493,25.947 C 30.493,25.947 30.869,26.473 31.696,27 C 32.523,27.526 32.899,27.677 32.899,27.677 C 32.899,27.677 33.726,28.804 34.704,29.406 C 35.681,30.008 36.132,30.233 36.132,30.233 C 36.132,30.233 36.96,31.06 37.636,31.436 C 38.313,31.812 38.915,32.038 38.915,32.038 C 38.915,32.038 40.719,33.542 41.17,33.918 C 41.622,34.294 42.073,34.971 42.674,35.271 C 43.276,35.572 44.028,35.873 44.028,35.873 C 44.028,35.873 45.156,36.85 45.833,37.302 C 46.509,37.753 46.81,37.978 46.81,37.978 C 46.81,37.978 47.938,39.031 48.615,39.407 C 49.292,39.783 50.269,40.385 50.269,40.385 C 50.269,40.385 50.495,41.137 51.096,41.362 C 51.698,41.588 51.773,41.663 51.773,41.663 C 51.773,41.663 53.051,43.016 53.878,43.543 C 54.706,44.069 55.984,44.972 55.984,44.972 C 55.984,44.972 56.811,45.648 57.112,45.874 C 57.413,46.099 57.864,46.475 57.864,46.475 C 57.864,46.475 58.315,47.378 59.894,48.506 C 61.473,49.634 62.526,50.235 62.526,50.235 C 62.526,50.235 64.255,52.115 65.007,52.942 C 65.759,53.769 66.586,54.521 67.489,55.123 C 68.391,55.724 69.218,56.1 69.218,56.1 C 69.218,56.1 70.797,58.206 72.076,59.334 C 73.354,60.462 75.008,60.988 75.008,60.988 C 75.008,60.988 76.738,63.319 77.79,64.071 C 78.843,64.823 80.798,65.65 80.798,65.65 C 80.798,65.65 82.377,67.756 83.355,68.508 C 84.332,69.26 86.287,70.312 86.287,70.312 C 86.287,70.312 88.318,72.869 89.37,73.696 C 90.423,74.523 92.303,75.351 92.303,75.351 C 92.303,75.351 93.957,77.155 94.785,77.907 C 95.612,78.659 97.341,79.486 97.341,79.486 C 97.341,79.486 98.92,81.441 99.973,82.344 C 101.026,83.246 102.981,84.374 102.981,84.374 C 102.981,84.374 104.259,86.555 105.462,87.532 C 106.665,88.51 108.62,89.412 108.62,89.412 C 108.62,89.412 109.974,91.668 111.478,92.946 C 112.982,94.225 114.937,94.977 114.937,94.977 C 114.937,94.977 116.215,97.458 117.418,98.511 C 118.621,99.564 121.178,100.767 121.178,100.767 C 121.178,100.767 122.456,103.398 124.111,104.752 C 125.765,106.106 127.194,106.707 127.194,106.707 C 127.194,106.707 128.547,109.414 129.976,110.542 C 131.404,111.67 133.209,112.873 133.209,112.873 C 133.209,112.873 134.939,116.107 136.367,117.234 C 137.796,118.362 139.977,119.34 139.977,119.34 C 139.977,119.34 141.631,122.649 143.06,123.626 C 144.488,124.604 146.368,125.506 146.368,125.506 C 146.368,125.506 147.421,128.363 149.226,129.867 C 151.03,131.371 152.609,131.973 152.609,131.973 C 152.609,131.973 154.189,135.657 155.542,136.635 C 156.896,137.612 159.302,138.74 159.302,138.74 C 159.302,138.74 160.43,141.673 162.009,142.876 C 163.588,144.079 165.769,145.207 165.769,145.207 C 165.769,145.207 166.671,148.516 168.551,149.945 C 170.431,151.373 172.611,152.351 172.611,152.351 C 172.611,152.351 173.363,155.208 175.243,156.863 C 177.123,158.517 179.529,159.645 179.529,159.645 C 179.529,159.645 180.206,162.502 182.387,164.457 C 184.567,166.412 186.372,167.315 186.372,167.315 C 186.372,167.315 187.124,170.323 189.981,172.503 C 192.839,174.684 193.741,175.135 193.741,175.135 C 193.741,175.135 194.643,178.519 196.749,180.248 C 198.854,181.978 200.96,183.256 200.96,183.256 C 200.96,183.256 201.486,186.49 203.892,188.369 C 206.299,190.249 207.727,191.227 207.727,191.227 C 207.727,191.227 209.081,195.287 210.961,196.716 C 212.841,198.145 214.871,199.498 214.871,199.498 C 214.871,199.498 216.525,203.709 218.48,205.439 C 220.435,207.168 222.541,207.996 222.541,207.996 C 222.541,207.996 223.067,211.304 224.947,213.259 C 226.827,215.214 228.406,216.192 228.406,216.192 C 228.406,216.192 229.76,219.576 231.865,221.606 C 233.97,223.636 236.076,225.215 236.076,225.215 C 236.076,225.215 236.677,228.9 239.234,230.93 C 241.791,232.96 243.52,234.164 243.52,234.164 C 243.52,234.164 244.949,238.299 247.28,240.33 C 249.611,242.36 251.19,243.713 251.19,243.713 C 251.19,243.713 252.092,246.947 254.724,249.428 C 257.356,251.91 259.386,253.188 259.386,253.188 C 259.386,253.188 259.988,256.722 262.845,259.128 C 265.703,261.535 266.079,261.384 266.079,261.384 L 268.184,262.963 C 268.184,262.963 268.41,265.445 271.267,268.002 C 274.125,270.558 274.576,270.408 274.576,270.408 C 274.576,270.408 275.854,271.461 276.38,271.837 C 276.907,272.212 277.283,272.513 277.283,272.513 C 277.283,272.513 277.884,275.145 280.065,277.326 C 282.246,279.506 283.9,280.108 283.9,280.108 C 283.9,280.108 285.103,281.086 285.479,281.311 C 285.855,281.537 286.457,281.988 286.457,281.988 C 286.457,281.988 287.584,285.297 289.765,287.101 C 291.946,288.906 294.051,289.733 294.051,289.733 L 296.082,290.936 C 296.082,290.936 296.833,293.643 299.39,295.824 C 301.947,298.005 304.428,298.907 304.428,298.907 L 306.985,300.636 C 306.985,300.636 307.812,303.569 310.82,305.374 C 313.828,307.178 315.707,308.081 315.707,308.081 L 317.587,309.209 C 317.587,309.209 318.941,312.217 321.723,314.096 C 324.505,315.976 326.611,316.352 326.611,316.352 L 328.641,317.706 C 328.641,317.706 329.543,320.413 332.927,322.594 C 336.311,324.774 339.018,325.376 339.018,325.376 L 340.823,326.353 C 340.823,326.353 342.326,329.587 345.109,331.015 C 347.891,332.444 351.049,333.046 351.049,333.046 L 353.38,334.625 C 353.38,334.625 355.335,337.557 358.418,339.212 C 361.501,340.866 364.208,341.242 364.208,341.242 C 364.208,341.242 365.186,342.144 366.013,342.52 C 366.84,342.896 367.066,343.197 367.066,343.197 C 367.066,343.197 369.246,346.431 372.254,347.634 C 375.262,348.837 377.969,348.912 377.969,348.912 L 379.924,349.89 C 379.924,349.89 381.428,352.822 385.338,354.552 C 389.248,356.281 391.278,355.83 391.278,355.83 L 393.609,357.184 C 393.609,357.184 396.467,360.417 399.625,361.545 C 402.783,362.673 405.641,362.297 405.641,362.297 C 405.641,362.297 406.618,363.049 407.069,363.35 C 407.521,363.65 408.197,363.951 408.197,363.951 C 408.197,363.951 411.506,366.809 414.514,368.012 C 417.521,369.215 420.529,368.764 420.529,368.764 L 422.108,369.892 C 422.108,369.892 424.59,372.975 428.049,374.253 C 431.508,375.531 435.042,375.306 435.042,375.306 C 435.042,375.306 435.944,375.982 436.847,376.358 C 437.749,376.734 438.05,376.96 438.05,376.96 C 438.05,376.96 440.907,379.742 443.99,380.72 C 447.073,381.697 450.833,381.02 450.833,381.02 L 452.262,381.472 C 452.262,381.472 454.893,384.705 459.104,385.607 C 463.315,386.51 467,386.209 467,386.209 L 468.504,386.961 C 468.504,386.961 470.684,389.593 476.023,390.721 C 481.362,391.849 483.317,390.946 483.317,390.946 L 485.799,391.849 C 485.799,391.849 488.882,393.879 492.04,394.405 C 495.198,394.932 497.98,394.48 497.98,394.48 C 497.98,394.48 498.883,394.856 500.01,395.232 C 501.138,395.608 501.815,395.909 501.815,395.909 C 501.815,395.909 505.221,397.748 507.831,398.315 C 511.29,399.067 515.501,397.789 515.501,397.789 C 515.501,397.789 516.628,398.391 517.155,398.767 C 517.681,399.143 520.416,400.874 524.374,401.474 C 529.336,402.226 532.194,400.722 532.194,400.722 C 532.194,400.722 536.029,403.73 540.992,404.106 C 545.955,404.482 548.661,403.203 548.661,403.203 C 548.661,403.203 554.076,406.286 558.211,406.061 C 562.347,405.835 565.204,404.782 565.204,404.782 C 565.204,404.782 566.558,405.008 567.084,405.158 C 567.611,405.309 571.295,406.963 574.98,407.038 C 578.664,407.113 582.499,405.76 583.176,405.76 C 583.853,405.76 587.086,407.489 590.771,407.264 C 594.455,407.038 598.215,405.309 598.967,405.309 C 599.719,405.309 600.396,406.437 601.975,406.737 C 603.554,407.038 603.156,407.269 603.156,407.269 L 603.779,-9.298 L -23.798,-9.696 z"
         id="path2506" /></clipPath><clipPath
       id="clipPath2512"><path
         d="M -1.096,-0.929 L 596.264,-0.929 L 596.264,485.843 L -1.096,485.843 L -1.096,-0.929 z"
         id="path2514" /></clipPath></defs><g
     transform="matrix(1.25,0,0,-1.25,-543.6375,1010.2163)"
     id="g2452"><g
       id="g2454"><g
         clip-path="url(#clipPath2458)"
         id="g2456"><g
           transform="matrix(0.7856455,0,0,0.7856455,94.350293,172.27091)"
           id="g2462"><g
             clip-path="url(#clipPath2466)"
             id="g2464"><path
               d="M 496.23,763.599 L 499.553,771.37 L 502.875,763.599 L 496.23,763.599 z M 501.693,781.332 C 501.626,781.486 501.433,781.611 501.266,781.611 L 497.216,781.611 C 497.048,781.611 496.858,781.484 496.793,781.331 L 483.038,748.73 L 489.569,748.73 C 489.736,748.73 489.927,748.856 489.993,749.01 L 493.812,757.942 L 505.293,757.942 L 509.112,749.01 C 509.178,748.856 509.368,748.73 509.536,748.73 L 516.076,748.73 L 501.693,781.332 z M 484.23,757.608 C 484.23,755.002 483.161,752.627 481.219,750.921 C 479.31,749.242 476.671,748.318 473.788,748.318 C 469.919,748.318 466.714,749.281 463.7,751.348 L 463.347,751.589 L 463.347,758.931 C 463.347,759.099 463.484,759.235 463.652,759.235 C 463.75,759.235 463.836,759.189 463.892,759.118 C 465.117,757.514 468.373,753.975 473.234,753.975 C 476.72,753.975 478.018,755.894 478.018,757.105 C 478.018,759.628 475.13,761.215 471.788,763.053 C 467.737,765.279 463.146,767.803 463.146,772.87 C 463.146,775.617 464.239,777.938 466.307,779.583 C 468.312,781.179 471.108,782.023 474.393,782.023 C 477.181,782.023 479.976,781.222 482.478,779.706 L 482.869,779.469 L 482.869,772.881 C 482.869,772.713 482.733,772.577 482.564,772.577 C 482.498,772.577 482.436,772.599 482.386,772.636 C 481.214,773.743 478.012,776.366 473.99,776.366 C 471.263,776.366 469.358,775.173 469.358,773.466 C 469.358,771.336 471.953,770.004 474.96,768.46 C 479.09,766.34 484.23,763.701 484.23,757.608 M 448.803,769.431 C 447.841,768.45 446.171,767.953 443.838,767.953 L 441.474,767.953 L 441.474,776.137 L 443.838,776.137 C 449.105,776.137 449.753,773.898 449.782,772.212 C 449.804,771.052 449.475,770.116 448.803,769.431 M 462.46,750.632 C 460.45,753.158 459.618,754.204 458.275,756.183 L 458.163,756.349 C 455.957,759.626 454.153,762.309 451.618,764.232 C 454.778,765.837 456.497,768.565 456.497,772.045 C 456.497,774.958 455.338,777.394 453.145,779.092 C 451.017,780.74 447.99,781.611 444.393,781.611 L 434.91,781.611 L 434.91,748.73 L 441.069,748.73 C 441.292,748.73 441.474,748.913 441.474,749.136 L 441.474,762.296 L 442.729,762.296 C 444.866,762.296 446.723,761.808 451.191,755.49 L 455.736,749.062 C 455.865,748.88 456.153,748.73 456.376,748.73 L 463.973,748.73 L 462.46,750.632 z"
               id="path2470"
               style="fill:#696566;fill-opacity:1;fill-rule:nonzero;stroke:none" /><g
               id="g2472"><g
                 clip-path="url(#clipPath2476)"
                 id="g2474"><path
                   d="M 519.093,772.067 C 519.005,771.92 519.048,771.719 519.19,771.621 L 519.453,771.438 C 519.595,771.34 519.803,771.366 519.916,771.496 L 520.641,772.33 C 520.347,772.621 520.066,772.925 519.797,773.24 L 519.093,772.067 z M 522.706,769.976 C 522.65,769.813 522.734,769.626 522.893,769.559 L 523.137,769.458 C 523.295,769.391 523.494,769.461 523.577,769.611 L 523.764,769.951 C 523.465,770.122 523.172,770.305 522.886,770.497 L 522.706,769.976 z M 515.999,774.87 C 515.881,774.744 515.882,774.539 516,774.413 L 516.258,774.139 C 516.376,774.013 516.586,773.995 516.723,774.099 L 518.319,775.297 C 518.065,775.724 517.832,776.163 517.62,776.616 L 515.999,774.87 z M 545.346,793.977 C 545.326,794.127 545.195,794.218 545.039,794.183 L 543.87,793.919 L 545.267,794.903 C 545.173,795.716 545.013,796.508 544.796,797.273 C 544.748,797.431 544.589,797.503 544.437,797.432 L 542.212,796.402 L 544.322,798.672 C 544.063,799.328 543.76,799.96 543.415,800.565 C 543.333,800.714 543.154,800.752 543.017,800.649 L 540.099,798.457 L 542.343,802.192 C 541.972,802.685 541.569,803.152 541.141,803.594 C 541.022,803.701 540.847,803.692 540.739,803.569 L 537.636,800 L 539.41,805.124 C 538.983,805.447 538.537,805.747 538.077,806.024 C 537.932,806.107 537.748,806.057 537.667,805.909 L 537.667,805.909 L 534.945,800.981 L 535.686,806.866 C 535.707,807.034 535.596,807.216 535.439,807.276 C 535.088,807.403 534.73,807.516 534.368,807.617 L 534.367,807.617 C 534.201,807.664 534.025,807.568 533.975,807.403 L 532.148,801.366 L 532.146,801.363 L 531.607,807.861 C 531.592,808.033 531.44,808.173 531.267,808.173 L 530.268,808.173 C 530.095,808.173 529.943,808.033 529.929,807.861 L 529.372,801.155 L 527.444,807.597 C 527.394,807.762 527.216,807.868 527.047,807.832 L 526.126,807.636 C 525.957,807.6 525.837,807.431 525.859,807.26 L 526.746,800.38 L 523.429,806.468 C 523.347,806.619 523.151,806.685 522.993,806.615 L 522.183,806.255 C 522.027,806.185 521.945,805.995 522.002,805.832 L 524.379,799.091 L 519.74,804.523 C 519.628,804.653 519.423,804.678 519.283,804.577 L 518.612,804.089 C 518.473,803.988 518.433,803.785 518.522,803.638 L 522.37,797.361 L 516.54,801.849 C 516.404,801.954 516.198,801.935 516.083,801.807 L 515.565,801.233 C 515.449,801.105 515.453,800.898 515.572,800.773 L 520.797,795.283 L 513.971,798.565 C 513.815,798.64 513.617,798.578 513.532,798.429 L 513.173,797.809 C 513.087,797.66 513.134,797.458 513.275,797.361 L 519.717,792.962 L 512.145,794.815 C 511.979,794.857 511.798,794.756 511.745,794.592 L 511.541,793.965 C 511.487,793.802 511.574,793.614 511.734,793.548 L 518.42,790.814 C 520.797,794.688 524.897,797.434 529.751,797.907 C 530.093,797.943 530.438,797.961 530.79,797.961 C 536.256,797.961 540.687,793.531 540.687,788.064 C 540.687,782.873 536.691,778.617 531.607,778.201 L 531.608,778.201 C 536.823,778.633 541.192,781.684 543.532,785.954 C 544.834,788.331 545.507,791.086 545.346,793.977 M 516.449,780.297 L 513.56,778.26 C 513.419,778.161 513.377,777.959 513.466,777.812 L 513.691,777.442 C 513.781,777.294 513.981,777.233 514.138,777.305 L 516.868,778.569 C 516.695,779.131 516.556,779.707 516.449,780.297 M 511.012,789.5 L 517.216,788.388 C 517.506,789.135 517.854,789.854 518.255,790.54 L 511.145,790.768 C 510.974,790.773 510.819,790.638 510.801,790.466 L 510.737,789.867 C 510.719,789.695 510.843,789.53 511.012,789.5 M 516.955,787.656 L 511.015,786.601 C 510.846,786.57 510.722,786.406 510.739,786.234 L 510.797,785.691 C 510.815,785.519 510.97,785.384 511.143,785.39 L 516.432,785.567 C 516.556,786.281 516.732,786.978 516.955,787.656 M 516.24,783.955 L 511.889,782.086 C 511.731,782.017 511.648,781.828 511.705,781.666 L 511.866,781.203 C 511.923,781.041 512.107,780.939 512.275,780.977 L 516.249,781.88 C 516.198,782.58 516.197,783.273 516.24,783.955"
                   id="path2480"
                   style="fill:#472380;fill-opacity:1;fill-rule:nonzero;stroke:none" /><path
                   d="M 549.846,782.58 L 543.161,785.314 C 540.79,781.451 536.704,778.709 531.867,778.225 L 531.867,778.226 C 531.512,778.188 531.153,778.167 530.79,778.167 C 525.324,778.167 520.893,782.598 520.893,788.064 C 520.893,793.18 524.774,797.388 529.751,797.907 C 521.653,797.117 515.653,790.004 516.249,781.88 L 517.71,782.21 L 516.568,781.406 C 516.564,781.404 516.56,781.401 516.556,781.399 L 516.556,781.399 C 516.416,781.3 516.323,781.079 516.351,780.91 L 516.35,780.908 L 516.353,780.906 C 516.464,780.103 516.637,779.323 516.868,778.569 L 519.367,779.726 L 517.463,777.678 L 517.464,777.678 C 517.346,777.552 517.307,777.32 517.377,777.163 C 517.377,777.163 517.376,777.163 517.376,777.162 C 517.648,776.515 517.964,775.893 518.319,775.297 L 521.48,777.672 L 519.387,774.189 C 519.305,774.041 519.322,773.818 519.428,773.687 C 519.805,773.21 520.21,772.756 520.641,772.329 L 523.943,776.129 L 522.258,771.26 C 522.222,771.102 522.291,770.911 522.421,770.818 L 522.421,770.818 C 522.853,770.506 523.301,770.216 523.764,769.951 L 526.632,775.142 L 525.892,769.263 C 525.871,769.095 525.98,768.914 526.138,768.853 C 526.49,768.727 526.848,768.613 527.211,768.512 L 527.213,768.512 C 527.378,768.465 527.555,768.561 527.605,768.726 L 529.427,774.755 C 529.431,774.762 529.434,774.766 529.434,774.766 L 529.973,768.267 C 529.987,768.096 530.14,767.955 530.313,767.955 L 531.312,767.955 C 531.483,767.955 531.636,768.096 531.65,768.267 L 532.207,774.974 L 534.136,768.532 C 534.185,768.367 534.363,768.261 534.532,768.297 L 535.454,768.493 C 535.622,768.529 535.743,768.698 535.72,768.868 L 534.833,775.749 L 538.15,769.661 C 538.233,769.51 538.429,769.443 538.586,769.514 L 539.396,769.874 C 539.552,769.944 539.635,770.134 539.577,770.296 L 537.201,777.038 L 541.84,771.606 C 541.952,771.475 542.157,771.451 542.296,771.552 L 542.967,772.039 C 543.107,772.141 543.147,772.344 543.058,772.49 L 539.21,778.768 L 545.039,774.28 C 545.176,774.174 545.382,774.193 545.498,774.322 L 546.014,774.896 C 546.13,775.024 546.127,775.231 546.008,775.356 L 540.782,780.845 L 547.608,777.564 C 547.764,777.489 547.962,777.55 548.048,777.699 L 548.407,778.32 C 548.492,778.469 548.446,778.671 548.304,778.768 L 541.863,783.166 L 549.435,781.313 C 549.601,781.272 549.782,781.372 549.835,781.536 L 550.039,782.164 C 550.092,782.327 550.005,782.515 549.846,782.58 M 550.567,786.629 L 544.364,787.741 C 544.075,786.994 543.727,786.275 543.326,785.589 L 550.434,785.361 C 550.606,785.355 550.761,785.491 550.78,785.662 L 550.843,786.262 C 550.861,786.433 550.736,786.599 550.567,786.629 M 539.641,805.791 C 539.697,805.954 539.616,806.147 539.46,806.219 L 539.222,806.331 C 539.066,806.404 538.87,806.341 538.787,806.19 L 538.539,805.736 C 538.837,805.543 539.127,805.338 539.41,805.124 L 539.641,805.791 z M 544.627,788.473 L 550.564,789.528 C 550.734,789.558 550.858,789.724 550.84,789.895 L 550.783,790.437 C 550.765,790.609 550.609,790.745 550.437,790.739 L 545.149,790.562 C 545.024,789.848 544.849,789.15 544.627,788.473 M 545.248,791.219 L 549.933,793.232 C 550.091,793.3 550.18,793.49 550.13,793.655 L 549.988,794.124 C 549.938,794.289 549.76,794.392 549.592,794.354 L 545.368,793.391 C 545.381,792.656 545.34,791.93 545.248,791.219 M 546.132,800.616 C 546.249,800.742 546.253,800.952 546.14,801.083 L 545.893,801.367 C 545.78,801.498 545.576,801.519 545.439,801.415 L 543.677,800.086 C 543.916,799.628 544.131,799.157 544.323,798.672 L 546.132,800.616 z M 545.268,794.903 L 548.424,797.126 C 548.565,797.225 548.612,797.43 548.528,797.58 L 548.32,797.96 C 548.236,798.111 548.04,798.175 547.884,798.102 L 544.939,796.732 C 545.085,796.137 545.195,795.526 545.268,794.903 M 542.345,802.19 C 542.086,802.533 541.813,802.865 541.525,803.183 L 542.362,804.15 C 542.475,804.28 542.68,804.302 542.817,804.198 L 543.072,804.004 C 543.21,803.901 543.25,803.695 543.16,803.547 L 542.345,802.19 z"
                   id="path2482"
                   style="fill:#d7058d;fill-opacity:1;fill-rule:nonzero;stroke:none" /></g></g></g></g></g></g></g></svg>