<svg width="178" height="63" viewBox="0 0 178 63" fill="none" xmlns="http://www.w3.org/2000/svg">
<path d="M71.3179 11.4537C69.7159 9.45664 67.2239 8.22316 63.9606 8.22316C57.9679 8.22316 52.9839 13.392 52.9839 20.0293C52.9839 26.6665 57.9679 31.8354 63.9606 31.8354C67.2239 31.8354 69.7159 30.6019 71.3179 28.6049V31.248H77.1326V8.81053H71.3179V11.4537ZM65.0286 26.2554C61.4686 26.2554 58.7986 23.7297 58.7986 19.9705C58.7986 16.2114 61.4686 13.6857 65.0286 13.6857C68.5886 13.6857 71.3179 16.2114 71.3179 19.9705C71.3179 23.7297 68.6479 26.2554 65.0286 26.2554ZM47.1693 4.22906C45.9233 2.87811 44.4399 1.82084 42.6599 1.116C40.8799 0.352421 38.9219 0 36.6673 0C34.4126 0 32.3953 0.352421 30.6153 1.05726C29.5473 1.46842 28.5979 2.05579 27.7079 2.7019L30.5559 8.34064C31.2086 7.57706 32.9293 5.99116 36.7266 5.99116C39.4559 5.99116 41.7106 6.93095 42.7786 8.34064C44.2026 10.1615 44.9146 12.276 44.9146 15.5653C44.9146 18.972 44.1433 25.3743 36.6673 25.4918C29.2506 25.5505 28.5979 18.5021 28.4793 15.5653C28.3013 8.69306 26.1059 5.52127 24.9193 4.17032C23.6733 2.81937 22.1899 1.76211 20.4099 1.05726C18.9266 0.469895 17.3246 0.117474 15.5446 0V6.0499C17.5026 6.22611 19.5793 6.98969 20.7066 8.63432C21.6559 10.044 22.4866 12.0998 22.4866 15.5065C22.4866 15.5065 22.4866 19.7943 23.3766 22.1438C24.0886 24.0234 24.9193 25.7268 26.1653 27.0777C27.4113 28.4287 28.8946 29.4859 30.6746 30.1908C32.4546 30.8956 34.4719 31.248 36.6673 31.248C38.9219 31.248 40.8799 30.8956 42.6599 30.1908C44.4399 29.4859 45.9233 28.4287 47.1693 27.0777C48.4153 25.7268 49.3646 24.0821 50.0173 22.1438C50.6699 20.2055 51.0259 18.0322 51.0259 15.624C51.0259 13.2158 50.7293 11.0425 50.0173 9.10422C49.3646 7.22464 48.4153 5.58 47.1693 4.22906ZM14.3579 25.2569C11.6286 25.2569 9.37393 24.3171 8.30593 22.9074C6.88193 21.0865 6.16993 19.0308 6.16993 15.8002V0H0.0585938C0.0585938 0 0.0585938 15.4478 0.0585938 15.5653C0.0585938 17.9735 0.35526 20.1468 1.06726 22.0851C1.71993 24.0234 2.66926 25.668 3.91526 27.019C5.16126 28.3699 6.64459 29.4272 8.42459 30.132C10.2046 30.8369 12.2219 31.1893 14.4173 31.1893C16.6126 31.1893 18.6893 30.8369 20.4693 30.132C21.5966 29.6621 22.6053 29.0748 23.4953 28.3699C23.4953 28.3699 21.1813 24.9044 20.8253 22.4375C20.7066 22.6137 19.2233 25.2569 14.3579 25.2569ZM88.9399 2.52569H83.1253V8.81053H79.2093V14.3318H83.1253V23.6122C83.1253 29.6621 85.8546 32.0116 94.0426 31.1306V25.903C90.7199 26.0792 88.9399 26.0204 88.9399 23.6122V14.3318H94.0426V8.81053H88.9399V2.52569ZM172.185 8.81053V11.4537C170.583 9.45664 168.091 8.22316 164.827 8.22316C158.835 8.22316 153.851 13.392 153.851 20.0293C153.851 26.6665 158.835 31.8354 164.827 31.8354C168.091 31.8354 170.583 30.6019 172.185 28.6049V31.1306H177.999V8.81053H172.185ZM165.895 26.2554C162.335 26.2554 159.665 23.7297 159.665 19.9705C159.665 16.2114 162.335 13.6857 165.895 13.6857C169.455 13.6857 172.185 16.2114 172.185 19.9705C172.185 23.7297 169.515 26.2554 165.895 26.2554ZM148.748 0.0587369C146.968 0.0587369 145.485 1.5859 145.485 3.28927C145.485 4.99264 146.968 6.51979 148.748 6.51979C150.528 6.51979 152.011 5.05137 152.011 3.28927C152.011 1.52716 150.587 0.0587369 148.748 0.0587369ZM134.508 8.16443C131.482 8.16443 129.109 9.28043 127.803 11.2775V8.81053H121.989V31.1306H127.803V19.0895C127.803 15.2129 129.939 13.5682 132.787 13.5682C135.398 13.5682 137.237 15.1541 137.237 18.1497V31.1306H143.052V17.4449C143.052 11.5124 139.255 8.16443 134.508 8.16443ZM145.841 31.1306H151.655V8.81053H145.841V31.1306ZM113.385 11.4537C111.783 9.45664 109.291 8.22316 106.028 8.22316C100.035 8.22316 95.0512 13.392 95.0512 20.0293C95.0512 26.6665 100.035 31.8354 106.028 31.8354C109.291 31.8354 111.783 30.6019 113.385 28.6049V31.248H119.2V8.81053H113.385V11.4537ZM107.155 26.2554C103.595 26.2554 100.925 23.7297 100.925 19.9705C100.925 16.2114 103.595 13.6857 107.155 13.6857C110.715 13.6857 113.445 16.2114 113.445 19.9705C113.445 23.7297 110.775 26.2554 107.155 26.2554Z" fill="white"/>
<path d="M18.2153 42.5843H11.57V62.4961H6.64533V42.5843H0V37.9441H18.2153V42.5843Z" fill="#05A04B"/>
<path d="M33.8199 44.9338V62.4374H29.2512V60.3816C28.0052 61.9675 26.0472 62.9073 23.4959 62.9073C18.8086 62.9073 14.8926 58.8544 14.8926 53.6856C14.8926 48.5167 18.8086 44.4639 23.4959 44.4639C26.0472 44.4639 28.0052 45.4624 29.2512 46.9896V44.9338H33.8199ZM29.2512 53.6856C29.2512 50.7487 27.1746 48.7517 24.3266 48.7517C21.4786 48.7517 19.4612 50.7487 19.4612 53.6856C19.4612 56.6224 21.5379 58.6195 24.3266 58.6195C27.1152 58.6195 29.2512 56.6811 29.2512 53.6856Z" fill="#05A04B"/>
<path d="M48.2381 62.496L41.7708 54.5078V62.4373H37.2021V36.8867H41.7708V52.6869L47.8821 44.9924H53.3408L46.2208 53.6267L53.5188 62.496H48.2381Z" fill="#05A04B"/>
<path d="M72.2086 44.9338V62.4374H67.6399V60.3816C66.3939 61.9675 64.4359 62.9073 61.8846 62.9073C57.1972 62.9073 53.2812 58.8544 53.2812 53.6856C53.2812 48.5167 57.1972 44.4639 61.8846 44.4639C64.4359 44.4639 66.3939 45.4624 67.6399 46.9896V44.9338H72.2086ZM67.6399 53.6856C67.6399 50.7487 65.5632 48.7517 62.7152 48.7517C59.8672 48.7517 57.8499 50.7487 57.8499 53.6856C57.8499 56.6224 59.9266 58.6195 62.7152 58.6195C65.5632 58.6782 67.6399 56.6811 67.6399 53.6856Z" fill="#05A04B"/>
<path d="M82.1176 44.7576V44.9338H85.8556V49.2803H82.1176V62.4374H77.5489V49.2803H74.9976V44.9338H77.5489V44.7576C77.5489 39.9412 80.2189 36.5344 85.8556 36.8868V41.2334C83.5416 41.0572 82.1176 42.4081 82.1176 44.7576Z" fill="#05A04B"/>
<path d="M104.961 44.9338V62.4374H100.392V60.4991C99.3241 62.085 97.4847 62.9661 95.1114 62.9661C91.3734 62.9661 88.4067 60.3816 88.4067 55.7414V44.9338H92.9754V55.1541C92.9754 57.5035 94.3994 58.7957 96.4761 58.7957C98.6714 58.7957 100.392 57.5035 100.392 54.4492V44.9338H104.961Z" fill="#05A04B"/>
<path d="M107.69 36.8867H112.259V62.4373H107.69V36.8867Z" fill="#05A04B"/>
</svg>
