<svg xmlns="http://www.w3.org/2000/svg" width="1652" height="1895" fill="none"><path stroke="url(#a)" stroke-dasharray="5 5" d="M237 1066v118.88m0-118.88h117.8m-117.8 0H119.2m117.8 0V947.94m0 118.06h589m-589 118.88v118.06m0-118.06h117.8m-117.8 0H119.2M237 1302.94V1421m0-118.06h117.8m-117.8 0H119.2M237 1421h589m-589 0H1.4v-118.06M826 1066H708.2m117.8 0v118.88m0-118.88V947.94m0 118.06h117.8m-117.8 0h589m-706.8 0H590.4m117.8 0v118.88m0-118.88V947.94M590.4 1066H472.6m117.8 0v118.88m0-118.88V947.94M472.6 1066H354.8m117.8 0v118.88m0-118.88V947.94M354.8 1066v118.88m0-118.88V947.94m0 236.94v118.06m0-118.06h117.8m-117.8 118.06V1421m0-118.06h117.8M826 1184.88H708.2m117.8 0v118.06m0-118.06h117.8m-235.6 0H590.4m117.8 0v118.06m-117.8-118.06H472.6m117.8 0v118.06m-117.8-118.06v118.06m0 0V1421m0-118.06h117.8m235.6 0H708.2m117.8 0V1421m0-118.06h117.8m-235.6 0H590.4m117.8 0V1421m-117.8-118.06V1421m235.6 0h589v-118.06M119.2 1066H1.4m117.8 0v118.88m0-118.88V947.94M1.4 1066v118.88m0-118.88V947.94m117.8 236.94H1.4m117.8 0v118.06M1.4 1184.88v118.06m117.8 0H1.4m117.8 0V1421M237 711v118.88M237 711h117.8M237 711H119.2m117.8 0V592.94M237 711h589M237 829.88v118.06m0-118.06h117.8m-117.8 0H119.2M237 947.94h117.8m-117.8 0H119.2M826 711H708.2m117.8 0v118.88M826 711h117.8M826 711V592.94M826 711h589m-706.8 0H590.4m117.8 0v118.88m0-118.88V592.94M590.4 711H472.6m117.8 0v118.88m0-118.88V592.94M472.6 711H354.8m117.8 0v118.88m0-118.88V592.94M354.8 711v118.88m0-118.88V592.94m0 236.94v118.06m0-118.06h117.8M354.8 947.94h117.8M826 829.88H708.2m117.8 0v118.06m0-118.06h117.8m-235.6 0H590.4m117.8 0v118.06M590.4 829.88H472.6m117.8 0v118.06M472.6 829.88v118.06m0 0h117.8m235.6 0H708.2m117.8 0h117.8m-235.6 0H590.4M119.2 711H1.4m117.8 0v118.88m0-118.88V592.94M1.4 711v118.88M1.4 711V592.94m117.8 236.94H1.4m117.8 0v118.06M1.4 829.88v118.06m117.8 0H1.4M1415 1066v118.88m0-118.88h117.8m-117.8 0h-117.8m117.8 0V947.94m0 236.94v118.06m0-118.06h117.8m-117.8 0h-117.8m117.8 118.06h117.8m-117.8 0h-117.8M1650.6 1066h-117.8m117.8 0v118.88m0-118.88V947.94M1532.8 1066v118.88m0-118.88V947.94m0 236.94v118.06m0-118.06h117.8m-117.8 118.06V1421m0-118.06h117.8m0-118.06v118.06m0 0V1421m-353.4-355h-117.8m117.8 0v118.88m0-118.88V947.94M1179.4 1066h-117.8m117.8 0v118.88m0-118.88V947.94M1061.6 1066H943.8m117.8 0v118.88m0-118.88V947.94M943.8 1066v118.88m0-118.88V947.94m0 236.94v118.06m0-118.06h117.8m-117.8 118.06V1421m0-118.06h117.8m235.6-118.06h-117.8m117.8 0v118.06m-117.8-118.06h-117.8m117.8 0v118.06m-117.8-118.06v118.06m0 0V1421m0-118.06h117.8m117.8 0h-117.8m117.8 0V1421m-117.8-118.06V1421M1415 711v118.88m0-118.88h117.8m-117.8 0h-117.8m117.8 0V592.94m0 236.94v118.06m0-118.06h117.8m-117.8 0h-117.8M1415 947.94h117.8m-117.8 0h-117.8M1650.6 711h-117.8m117.8 0v118.88m0-118.88V592.94M1532.8 711v118.88m0-118.88V592.94m0 236.94v118.06m0-118.06h117.8m-117.8 118.06h117.8m0-118.06v118.06M1297.2 711h-117.8m117.8 0v118.88m0-118.88V592.94M1179.4 711h-117.8m117.8 0v118.88m0-118.88V592.94M1061.6 711H943.8m117.8 0v118.88m0-118.88V592.94M943.8 711v118.88m0-118.88V592.94m0 236.94v118.06m0-118.06h117.8M943.8 947.94h117.8m235.6-118.06h-117.8m117.8 0v118.06m-117.8-118.06h-117.8m117.8 0v118.06m-117.8-118.06v118.06m0 0h117.8m117.8 0h-117.8M237 356v118.88M237 356h117.8M237 356H119.2m117.8 0V237.94M237 356h589M237 474.88v118.06m0-118.06h117.8m-117.8 0H119.2M237 592.94h117.8m-117.8 0H119.2M826 356H708.2m117.8 0v118.88M826 356V237.94M826 356h117.8M826 356h589m-706.8 0H590.4m117.8 0v118.88m0-118.88V237.94M590.4 356H472.6m117.8 0v118.88m0-118.88V237.94M472.6 356H354.8m117.8 0v118.88m0-118.88V237.94M354.8 356v118.88m0-118.88V237.94m0 236.94v118.06m0-118.06h117.8M354.8 592.94h117.8M826 474.88H708.2m117.8 0v118.06m0-118.06h117.8m-235.6 0v118.06m0-118.06H590.4m0 0H472.6m117.8 0v118.06M472.6 474.88v118.06m0 0h117.8m235.6 0H708.2m117.8 0h117.8m-235.6 0H590.4M119.2 356H1.4m117.8 0v118.88m0-118.88V237.94M1.4 356v118.88M1.4 356V237.94m117.8 236.94H1.4m117.8 0v118.06M1.4 474.88v118.06m117.8 0H1.4M237 1v118.88M237 1h117.8M237 1H119.2M237 119.88v118.06m0-118.06h117.8m-117.8 0H119.2M237 237.94h117.8m-117.8 0H119.2M826 1H708.2M826 1v118.88M826 1h117.8M708.2 1H590.4m117.8 0v118.88M590.4 1H472.6m117.8 0v118.88M472.6 1H354.8m117.8 0v118.88M354.8 1v118.88m0 0v118.06m0-118.06h117.8M354.8 237.94h117.8M826 119.88H708.2m117.8 0v118.06m0-118.06h117.8m-235.6 0H590.4m117.8 0v118.06M590.4 119.88H472.6m117.8 0v118.06M472.6 119.88v118.06m0 0h117.8m235.6 0H708.2m117.8 0h117.8m-235.6 0H590.4M119.2 1H1.4v118.88M119.2 1v118.88m0 0H1.4m117.8 0v118.06M1.4 119.88v118.06m117.8 0H1.4M1415 356v118.88m0-118.88h117.8m-117.8 0h-117.8m117.8 0V237.94m0 236.94v118.06m0-118.06h117.8m-117.8 0h-117.8M1415 592.94h117.8m-117.8 0h-117.8M1650.6 356h-117.8m117.8 0v118.88m0-118.88V237.94M1532.8 356v118.88m0-118.88V237.94m0 236.94v118.06m0-118.06h117.8m-117.8 118.06h117.8m0-118.06v118.06M1297.2 356h-117.8m117.8 0v118.88m0-118.88V237.94M1179.4 356h-117.8m117.8 0v118.88m0-118.88V237.94M1061.6 356H943.8m117.8 0v118.88m0-118.88V237.94M943.8 356v118.88m0-118.88V237.94m0 236.94v118.06m0-118.06h117.8M943.8 592.94h117.8m235.6-118.06h-117.8m117.8 0v118.06m-117.8-118.06h-117.8m117.8 0v118.06m-117.8-118.06v118.06m0 0h117.8m117.8 0h-117.8M1415 1v118.88M1415 1h117.8M1415 1h-117.8M1415 119.88v118.06m0-118.06h117.8m-117.8 0h-117.8M1415 237.94h117.8m-117.8 0h-117.8M1532.8 1h117.8v118.88M1532.8 1v118.88m0 0v118.06m0-118.06h117.8m-117.8 118.06h117.8m0-118.06v118.06M1297.2 1h-117.8m117.8 0v118.88M1179.4 1h-117.8m117.8 0v118.88M1061.6 1H943.8m117.8 0v118.88M943.8 1v118.88m0 0v118.06m0-118.06h117.8M943.8 237.94h117.8m235.6-118.06h-117.8m117.8 0v118.06m-117.8-118.06h-117.8m117.8 0v118.06m-117.8-118.06v118.06m0 0h117.8m117.8 0h-117.8M237 1539v118.88m0-118.88h117.8m-117.8 0H119.2m117.8 0v-118.06m0 118.06h589m-589 118.88v118.06m0-118.06h117.8m-117.8 0H119.2M237 1775.94V1894m0-118.06h117.8m-117.8 0H119.2M237 1894h589m-589 0H1.4v-118.06M826 1539H708.2m117.8 0v118.88m0-118.88v-118.06m0 118.06h117.8m-117.8 0h589m-706.8 0H590.4m117.8 0v118.88m0-118.88v-118.06M590.4 1539H472.6m117.8 0v118.88m0-118.88v-118.06M472.6 1539H354.8m117.8 0v118.88m0-118.88v-118.06M354.8 1539v118.88m0-118.88v-118.06m0 236.94v118.06m0-118.06h117.8m-117.8 118.06V1894m0-118.06h117.8M826 1657.88H708.2m117.8 0v118.06m0-118.06h117.8m-235.6 0H590.4m117.8 0v118.06m-117.8-118.06H472.6m117.8 0v118.06m-117.8-118.06v118.06m0 0V1894m0-118.06h117.8m235.6 0H708.2m117.8 0V1894m0-118.06h117.8m-235.6 0H590.4m117.8 0V1894m-117.8-118.06V1894m235.6 0h589v-118.06M119.2 1539H1.4m117.8 0v118.88m0-118.88v-118.06M1.4 1539v118.88m0-118.88v-118.06m117.8 236.94H1.4m117.8 0v118.06M1.4 1657.88v118.06m117.8 0H1.4m117.8 0V1894M1415 1539v118.88m0-118.88h117.8m-117.8 0h-117.8m117.8 0v-118.06m0 236.94v118.06m0-118.06h117.8m-117.8 0h-117.8m117.8 118.06h117.8m-117.8 0h-117.8M1650.6 1539h-117.8m117.8 0v118.88m0-118.88v-118.06M1532.8 1539v118.88m0-118.88v-118.06m0 236.94v118.06m0-118.06h117.8m-117.8 118.06V1894m0-118.06h117.8m0-118.06v118.06m0 0V1894m-353.4-355h-117.8m117.8 0v118.88m0-118.88v-118.06M1179.4 1539h-117.8m117.8 0v118.88m0-118.88v-118.06M1061.6 1539H943.8m117.8 0v118.88m0-118.88v-118.06M943.8 1539v118.88m0-118.88v-118.06m0 236.94v118.06m0-118.06h117.8m-117.8 118.06V1894m0-118.06h117.8m235.6-118.06h-117.8m117.8 0v118.06m-117.8-118.06h-117.8m117.8 0v118.06m-117.8-118.06v118.06m0 0V1894m0-118.06h117.8m117.8 0h-117.8m117.8 0V1894m-117.8-118.06V1894"/><defs><radialGradient id="a" cx="0" cy="0" r="1" gradientTransform="matrix(-787 0 0 -387.6 826 711)" gradientUnits="userSpaceOnUse">
<stop stop-color="#fff" stop-opacity=".4"/>
<stop offset="1" stop-color="#fff" stop-opacity=".05"/>
</radialGradient></defs></svg>
